<?xml version="1.0" encoding="iso-8859-1"?>
<!-- Generator: Adobe Illustrator 18.1.1, SVG Export Plug-In . SVG Version: 6.00 Build 0)  -->
<svg version="1.1" id="Capa_1" xmlns="http://www.w3.org/2000/svg" xmlns:xlink="http://www.w3.org/1999/xlink" x="0px" y="0px"
	 viewBox="0 0 491.281 491.281" style="enable-background:new 0 0 491.281 491.281;" xml:space="preserve">
<g>
	<g>
		<path d="M490.358,189.116c-1.983-6.517-7.933-11.05-14.733-11.617l-154.417-13.033l-60.067-142.8
			c-2.55-6.233-8.783-10.483-15.583-10.483s-13.033,3.967-15.583,10.483l-60.067,142.8L15.491,177.499
			c-6.8,0.567-12.75,5.1-14.733,11.617c-1.983,6.517,0,13.6,5.1,18.133l117.017,101.15L87.741,459.132
			c-1.417,6.8,1.133,13.6,6.517,17.567c5.383,3.967,13.033,4.25,18.7,0.85l132.6-80.183l132.6,80.183
			c2.833,1.7,5.667,2.55,8.783,2.55c3.4,0,7.083-1.133,9.917-3.117c5.667-3.967,8.217-11.05,6.517-17.567l-35.133-150.733
			l117.017-101.15C490.641,202.716,492.624,195.632,490.358,189.116z"/>
	</g>
</g>
<g>
</g>
<g>
</g>
<g>
</g>
<g>
</g>
<g>
</g>
<g>
</g>
<g>
</g>
<g>
</g>
<g>
</g>
<g>
</g>
<g>
</g>
<g>
</g>
<g>
</g>
<g>
</g>
<g>
</g>
</svg>
